<?xml version="1.0" encoding="utf-8"?>
<!-- Generator: Adobe Illustrator 16.0.0, SVG Export Plug-In . SVG Version: 6.00 Build 0)  -->
<!DOCTYPE svg PUBLIC "-//W3C//DTD SVG 1.1//EN" "http://www.w3.org/Graphics/SVG/1.1/DTD/svg11.dtd">
<svg version="1.1" id="Layer_1" xmlns="http://www.w3.org/2000/svg" xmlns:xlink="http://www.w3.org/1999/xlink" x="0px" y="0px"
	 width="1400px" height="980px" viewBox="0 0 1400 980" enable-background="new 0 0 1400 980" xml:space="preserve">
<g>
	<g>
		<g>
			<rect fill="#FFFFFF" width="1400" height="980"/>
		</g>
	</g>
	<g>
		<rect x="450.3" y="164.5" fill="#FFFFFF" width="464.9" height="650.9"/>
		<path d="M915.2,818.5H450.3c-1.7,0-3.1-1.4-3.1-3.1V164.5c0-1.7,1.4-3.1,3.1-3.1h464.9c1.7,0,3.1,1.4,3.1,3.1v650.9
			C918.3,817.1,916.9,818.5,915.2,818.5z M453.3,812.4h458.8V167.6H453.3V812.4z"/>
	</g>
	<g>
		<polygon fill="#EB706D" points="808.7,886.4 766.8,856.2 724.8,886.4 724.8,749.8 808.7,749.8 		"/>
		<path d="M808.7,889.5c-0.6,0-1.3-0.2-1.8-0.6L766.8,860l-40.2,28.9c-0.9,0.7-2.2,0.8-3.2,0.2c-1-0.5-1.7-1.6-1.7-2.7V749.8
			c0-1.7,1.4-3.1,3.1-3.1h83.9c1.7,0,3.1,1.4,3.1,3.1v136.6c0,1.2-0.6,2.2-1.7,2.7C809.7,889.4,809.2,889.5,808.7,889.5z
			 M766.8,853.2c0.6,0,1.3,0.2,1.8,0.6l37.1,26.7V752.9h-77.8v127.6l37.1-26.7C765.5,853.4,766.2,853.2,766.8,853.2z"/>
	</g>
	<g>
		<path d="M673.4,390.8h-267c-1.7,0-3.1-1.4-3.1-3.1s1.4-3.1,3.1-3.1h263.9V120.7c0-1.7,1.4-3.1,3.1-3.1s3.1,1.4,3.1,3.1v267
			C676.5,389.4,675.1,390.8,673.4,390.8z"/>
	</g>
	<g>
		<path fill="#00A4EE" d="M673.4,164.5H450.3v223.2h31.9v-40.9c0-25.9,21-47,47-47h8.9c-14.3-8.3-24-23.7-24-41.4
			c0-26.4,21.4-47.8,47.8-47.8s47.8,21.4,47.8,47.8c0,17.7-9.7,33.2-24,41.4h8.9c25.9,0,47,21,47,47v40.9h31.9V164.5z"/>
		<path d="M673.4,390.8h-31.9c-1.7,0-3.1-1.4-3.1-3.1v-40.9c0-24.2-19.7-43.9-43.9-43.9h-8.9c-1.4,0-2.6-0.9-3-2.3
			c-0.4-1.3,0.2-2.8,1.4-3.5c13.8-8,22.4-22.8,22.4-38.8c0-24.7-20.1-44.8-44.8-44.8c-24.7,0-44.8,20.1-44.8,44.8
			c0,15.8,8.4,30.5,22,38.5c1.2,0.4,2.1,1.6,2.1,2.9c0,1.7-1.4,3.2-3.1,3.1c0,0,0,0-0.1,0h-8.9c-24.2,0-43.9,19.7-43.9,43.9v40.9
			c0,1.7-1.4,3.1-3.1,3.1h-31.9c-1.7,0-3.1-1.4-3.1-3.1V164.5c0-1.7,1.4-3.1,3.1-3.1h223.2c1.7,0,3.1,1.4,3.1,3.1v223.2
			C676.5,389.4,675.1,390.8,673.4,390.8z M644.6,384.6h25.7v-217h-217v217H479v-37.9c0-27.4,22.1-49.7,49.4-50
			c-11-9.6-17.5-23.6-17.5-38.3c0-28.1,22.8-50.9,50.9-50.9c28.1,0,50.9,22.8,50.9,50.9c0,14.8-6.5,28.8-17.5,38.3
			c27.3,0.3,49.4,22.6,49.4,50V384.6z"/>
	</g>
	<g>
		<path fill="#FFFFFF" d="M594.6,299.8h-8.9c-7,4.1-15.2,6.4-23.8,6.4c-8.7,0-16.8-2.4-23.8-6.4h-8.9c-25.9,0-47,21-47,47v40.9
			h159.5v-40.9C641.6,320.9,620.5,299.8,594.6,299.8z"/>
		<path d="M641.6,390.8H482.1c-1.7,0-3.1-1.4-3.1-3.1v-40.9c0-27.6,22.4-50,50-50h8.9c0.5,0,1.1,0.1,1.5,0.4c13.6,7.8,31,7.9,44.6,0
			c0.5-0.3,1-0.4,1.5-0.4h8.9c27.6,0,50,22.4,50,50v40.9C644.6,389.4,643.3,390.8,641.6,390.8z M485.2,384.6h153.3v-37.9
			c0-24.2-19.7-43.9-43.9-43.9h-8.1c-15.1,8.4-34.2,8.4-49.3,0h-8.1c-24.2,0-43.9,19.7-43.9,43.9V384.6z"/>
	</g>
	<g>
		<path fill="#FFFFFF" d="M561.8,210.6c-26.4,0-47.8,21.4-47.8,47.8c0,17.7,9.7,33.2,24,41.4c7,4.1,15.1,6.4,23.8,6.4
			c8.7,0,16.8-2.4,23.8-6.4c14.3-8.3,24-23.7,24-41.4C609.7,232,588.3,210.6,561.8,210.6z"/>
		<path d="M561.8,309.3c-8.9,0-17.6-2.4-25.4-6.8c-15.7-9.1-25.5-26-25.5-44.1c0-28.1,22.8-50.9,50.9-50.9
			c28.1,0,50.9,22.8,50.9,50.9c0,18.1-9.8,35-25.5,44.1C579.5,306.9,570.7,309.3,561.8,309.3z M561.8,213.7
			c-24.7,0-44.8,20.1-44.8,44.8c0,15.9,8.6,30.8,22.4,38.8c13.6,7.8,31,7.9,44.6,0c13.8-8,22.4-22.8,22.4-38.8
			C606.6,233.7,586.5,213.7,561.8,213.7z"/>
	</g>
	<g>
		<g>
			<path fill="#00A4EE" d="M234.4,499.3H102v132.3h18.9v-24.3c0-15.4,12.5-27.8,27.9-27.8h5.3c-8.5-4.9-14.2-14.1-14.2-24.6
				c0-15.7,12.7-28.4,28.4-28.4s28.4,12.7,28.4,28.4c0,10.5-5.7,19.7-14.2,24.6h5.3c15.4,0,27.8,12.5,27.8,27.8v24.3h18.9V499.3z"/>
			<path d="M234.4,634.8h-18.9c-1.7,0-3.1-1.4-3.1-3.1v-24.3c0-13.7-11.1-24.8-24.8-24.8h-5.3c-1.4,0-2.6-0.9-3-2.3
				c-0.4-1.3,0.2-2.8,1.4-3.5c7.8-4.5,12.7-12.9,12.7-21.9c0-13.9-11.3-25.3-25.3-25.3c-13.9,0-25.3,11.3-25.3,25.3
				c0,8.8,4.7,17.1,12.3,21.7c1.2,0.4,2.1,1.6,2.1,2.9c0,1.7-1.4,3.1-3.1,3.1c0,0,0,0-0.1,0h-5.3c-13.7,0-24.8,11.1-24.8,24.8v24.3
				c0,1.7-1.4,3.1-3.1,3.1H102c-1.7,0-3.1-1.4-3.1-3.1V499.3c0-1.7,1.4-3.1,3.1-3.1h132.4c1.7,0,3.1,1.4,3.1,3.1v132.3
				C237.4,633.4,236.1,634.8,234.4,634.8z M218.5,628.6h12.8V502.4H105.1v126.2h12.8v-21.2c0-15.9,12.1-29.1,27.6-30.7
				c-5.5-5.8-8.7-13.5-8.7-21.7c0-17.3,14.1-31.4,31.4-31.4c17.3,0,31.4,14.1,31.4,31.4c0,8.1-3.2,15.9-8.7,21.7
				c15.5,1.7,27.6,14.8,27.6,30.7V628.6z"/>
		</g>
		<g>
			<path fill="#FFFFFF" d="M187.6,579.6h-5.3c-4.2,2.4-9,3.8-14.1,3.8c-5.2,0-10-1.4-14.1-3.8h-5.3c-15.4,0-27.9,12.5-27.9,27.8
				v24.3h94.6v-24.3C215.5,592,203,579.6,187.6,579.6z"/>
			<path d="M215.5,634.8h-94.6c-1.7,0-3.1-1.4-3.1-3.1v-24.3c0-17,13.9-30.9,30.9-30.9h5.3c0.5,0,1.1,0.1,1.5,0.4
				c7.7,4.4,17.5,4.4,25.2,0c0.5-0.3,1-0.4,1.5-0.4h5.3c17,0,30.9,13.9,30.9,30.9v24.3C218.5,633.4,217.2,634.8,215.5,634.8z
				 M124,628.6h88.4v-21.2c0-13.7-11.1-24.8-24.8-24.8h-4.5c-9.2,5-20.7,5-29.9,0h-4.5c-13.7,0-24.8,11.1-24.8,24.8V628.6z"/>
		</g>
		<g>
			<path fill="#FFFFFF" d="M168.2,526.6c-15.7,0-28.4,12.7-28.4,28.4c0,10.5,5.7,19.7,14.2,24.6c4.2,2.4,9,3.8,14.1,3.8
				c5.2,0,10-1.4,14.1-3.8c8.5-4.9,14.2-14.1,14.2-24.6C196.6,539.4,183.9,526.6,168.2,526.6z"/>
			<path d="M168.2,586.4c-5.5,0-10.9-1.5-15.7-4.2c-9.7-5.6-15.8-16-15.8-27.2c0-17.3,14.1-31.4,31.4-31.4
				c17.3,0,31.4,14.1,31.4,31.4c0,11.2-6,21.6-15.7,27.2C179.1,585,173.7,586.4,168.2,586.4z M168.2,529.7
				c-13.9,0-25.3,11.3-25.3,25.3c0,9,4.9,17.4,12.7,21.9c7.7,4.4,17.5,4.4,25.2,0c7.8-4.5,12.7-12.9,12.7-21.9
				C193.5,541.1,182.1,529.7,168.2,529.7z"/>
		</g>
	</g>
	<g>
		<rect x="515.4" y="436.9" fill="#00A4EE" width="334.8" height="71.7"/>
		<path d="M850.1,511.7H515.4c-1.7,0-3.1-1.4-3.1-3.1v-71.7c0-1.7,1.4-3.1,3.1-3.1h334.8c1.7,0,3.1,1.4,3.1,3.1v71.7
			C853.2,510.3,851.8,511.7,850.1,511.7z M518.4,505.5H847v-65.6H518.4V505.5z"/>
	</g>
	<g>
		<rect x="515.4" y="557.7" fill="#FFEA7A" width="230.5" height="43.8"/>
	</g>
	<g>
		<rect x="515.4" y="629.5" fill="#FFEA7A" width="132.8" height="43.8"/>
	</g>
	<g>
		<rect x="704" y="316" fill="#FFEA7A" width="132.8" height="43.8"/>
	</g>
	<g>
		<path d="M759.8,560.8H515.4c-1.7,0-3.1-1.4-3.1-3.1c0-1.7,1.4-3.1,3.1-3.1h244.4c1.7,0,3.1,1.4,3.1,3.1
			C762.8,559.4,761.5,560.8,759.8,560.8z"/>
	</g>
	<g>
		<path d="M664.1,632.5H515.4c-1.7,0-3.1-1.4-3.1-3.1c0-1.7,1.4-3.1,3.1-3.1h148.8c1.7,0,3.1,1.4,3.1,3.1
			C667.2,631.2,665.8,632.5,664.1,632.5z"/>
	</g>
	<g>
		<path fill="#FF7A76" d="M795.8,767.8c-1.3,10.3-8.4,12.6-15.6,5.2c-7.2-7.4-19-7.3-26.1,0.2c-7.1,7.5-14.2,5.3-15.6-5
			c-1.5-10.2-11-17.1-21.2-15.2c-10.2,1.9-14.6-4.1-9.7-13.2c4.8-9.2,1.1-20.3-8.2-24.8c-9.3-4.5-9.4-11.8-0.1-16.4
			c9.3-4.6,12.8-15.8,7.9-24.8c-4.9-9.1-0.6-15.1,9.6-13.4c10.2,1.8,19.6-5.2,21-15.5c1.3-10.2,8.4-12.6,15.6-5.2
			c7.2,7.4,19,7.3,26.1-0.2c7.1-7.5,14.2-5.3,15.7,5c1.5,10.2,11,17.1,21.2,15.2c10.2-1.9,14.6,4.1,9.7,13.2
			c-4.8,9.2-1.1,20.3,8.2,24.7c9.3,4.5,9.4,11.8,0.1,16.4c-9.3,4.6-12.8,15.8-7.9,24.8c4.9,9.1,0.6,15.1-9.6,13.4
			C806.6,750.6,797.2,757.6,795.8,767.8z"/>
		<path d="M746,780.7c-5.5,0-9.5-4.5-10.5-12c-1.2-8.4-9-14.2-17.6-12.6c-6.8,1.3-11.6-0.4-14-4.3c-2.1-3.5-1.7-8.2,1-13.3
			c1.9-3.7,2.3-7.9,1-11.7c-1.3-3.9-4.1-7-7.8-8.8c-7.6-3.6-8.8-8.4-8.8-10.9c0-2.5,1.1-7.3,8.6-11c3.7-1.8,6.5-5,7.7-8.9
			c1.2-3.9,0.8-8.1-1.1-11.7c-2.8-5.1-3.2-9.9-1.1-13.4c2.3-3.9,7.1-5.6,13.9-4.5c8.7,1.5,16.3-4.4,17.4-12.8
			c1.2-9,6.2-12.2,10.5-12.2c3.4,0,7,1.8,10.3,5.3c5.8,6,15.9,5.9,21.7-0.1c3.3-3.5,6.9-5.4,10.4-5.4c5.5,0,9.5,4.5,10.5,12
			c1.2,8.4,9,14.2,17.6,12.6c6.8-1.2,11.6,0.4,14,4.3c2.1,3.5,1.8,8.2-1,13.3c-1.9,3.7-2.3,7.8-1,11.7c1.3,3.9,4.1,7,7.8,8.8
			c7.6,3.6,8.8,8.4,8.8,10.9c0,2.5-1.1,7.3-8.6,11c-3.7,1.8-6.5,5-7.7,8.9c-1.2,3.9-0.8,8.1,1.2,11.7c2.8,5.1,3.2,9.9,1.1,13.4
			c-2.3,3.9-7.1,5.6-13.9,4.5c-8.6-1.4-16.3,4.4-17.4,12.8c-1,7.6-4.9,12.2-10.5,12.2c-3.4,0-7-1.8-10.3-5.3
			c-5.8-6-15.9-5.9-21.7,0.1C753,778.8,749.5,780.7,746,780.7z M720.7,749.6c10.6,0,19.3,7.6,20.9,18.1c0.2,1.6,1.2,6.8,4.5,6.8
			c1.7,0,3.8-1.3,5.9-3.5c8.1-8.5,22.4-8.6,30.5-0.2c2.1,2.2,4.3,3.4,5.9,3.4c3.3,0,4.2-5.2,4.4-6.8c1.5-11.7,12.6-20.1,24.6-18.1
			c1,0.2,1.9,0.3,2.8,0.3c1.4,0,3.8-0.2,4.8-1.8c0.9-1.5,0.4-4.2-1.2-7.3c-2.8-5.1-3.4-11-1.6-16.5c1.7-5.5,5.6-10,10.8-12.5
			c3.3-1.6,5.2-3.7,5.2-5.5c0-1.8-2-3.8-5.3-5.4c-5.3-2.5-9.2-6.9-11-12.4c-1.8-5.5-1.3-11.4,1.4-16.5c1.6-3.1,2-5.8,1.1-7.3
			c-0.9-1.5-3.3-1.8-4.6-1.8c-0.9,0-1.9,0.1-3,0.3c-12.1,2.2-23.1-6-24.8-17.8c-0.2-1.6-1.2-6.8-4.5-6.8c-1.7,0-3.8,1.3-5.9,3.5
			c-8.1,8.5-22.3,8.6-30.5,0.2c-2.1-2.2-4.3-3.4-5.9-3.4c-3.3,0-4.2,5.2-4.4,6.8c-1.5,11.7-12.5,20.2-24.6,18.1
			c-1-0.2-1.9-0.3-2.8-0.3c-1.4,0-3.8,0.2-4.8,1.8c-0.9,1.5-0.4,4.2,1.2,7.3c2.8,5.1,3.4,11,1.6,16.5c-1.8,5.5-5.6,10-10.8,12.5
			c-3.3,1.6-5.2,3.7-5.2,5.5c0,1.8,2,3.8,5.3,5.4c5.3,2.5,9.2,6.9,11,12.4c1.8,5.5,1.3,11.4-1.4,16.5c-1.6,3.1-2,5.8-1.1,7.3
			c0.9,1.5,3.3,1.8,4.6,1.8c0.9,0,1.9-0.1,3-0.3C718.1,749.8,719.4,749.6,720.7,749.6z"/>
	</g>
	<g>
		<path fill="#FFF9E0" d="M807.7,697c5.2,22.6-9,45.1-31.6,50.3c-22.6,5.2-45.1-9-50.3-31.5c-5.2-22.6,9-45.1,31.5-50.3
			C780,660.3,802.5,674.4,807.7,697z"/>
		<path d="M766.7,751.4c-21.1,0-39.2-14.4-43.9-35c-5.5-24.2,9.7-48.4,33.9-54c3.3-0.8,6.7-1.1,10.1-1.1c21.1,0,39.2,14.4,43.9,35
			c2.7,11.7,0.6,23.8-5.8,34c-6.4,10.2-16.4,17.3-28.1,20C773.5,751.1,770.1,751.4,766.7,751.4z M766.8,667.5c-2.9,0-5.8,0.3-8.7,1
			c-20.9,4.8-34,25.7-29.2,46.6c4.1,17.8,19.6,30.2,37.9,30.2c2.9,0,5.8-0.3,8.7-1c10.1-2.3,18.8-8.4,24.3-17.2
			c5.5-8.8,7.3-19.2,5-29.4C800.6,679.9,785.1,667.5,766.8,667.5z"/>
	</g>
	<g>
		<rect x="724.8" y="202.6" fill="#FF7A76" width="125.3" height="81.5"/>
		<path d="M850.1,287.2H724.8c-1.7,0-3.1-1.4-3.1-3.1v-81.5c0-1.7,1.4-3.1,3.1-3.1h125.3c1.7,0,3.1,1.4,3.1,3.1v81.5
			C853.2,285.8,851.8,287.2,850.1,287.2z M727.9,281H847v-75.3H727.9V281z"/>
	</g>
	<g>
		<path d="M748.7,265c-1.7,0-3.1-1.4-3.1-3.1v-37.2c0-1.7,1.4-3.1,3.1-3.1c1.7,0,3.1,1.4,3.1,3.1V262
			C751.8,263.6,750.4,265,748.7,265z"/>
	</g>
	<g>
		<path d="M787.5,265c-1.7,0-3.1-1.4-3.1-3.1v-37.2c0-1.7,1.4-3.1,3.1-3.1c1.7,0,3.1,1.4,3.1,3.1V262
			C790.5,263.6,789.2,265,787.5,265z"/>
	</g>
	<g>
		<path d="M826.2,265c-1.7,0-3.1-1.4-3.1-3.1v-37.2c0-1.7,1.4-3.1,3.1-3.1s3.1,1.4,3.1,3.1V262C829.3,263.6,827.9,265,826.2,265z"/>
	</g>
	<g>
		<path d="M850.1,319H704c-1.7,0-3.1-1.4-3.1-3.1c0-1.7,1.4-3.1,3.1-3.1h146.1c1.7,0,3.1,1.4,3.1,3.1
			C853.2,317.7,851.8,319,850.1,319z"/>
	</g>
	<g>
		<path fill="#FFFFFF" d="M608.3,472.7c0,9.5-7.7,17.3-17.3,17.3c-9.5,0-17.3-7.7-17.3-17.3c0-9.5,7.7-17.3,17.3-17.3
			C600.6,455.5,608.3,463.2,608.3,472.7z"/>
		<path d="M591.1,493.1c-11.2,0-20.3-9.1-20.3-20.3c0-11.2,9.1-20.3,20.3-20.3c11.2,0,20.3,9.1,20.3,20.3
			C611.4,483.9,602.3,493.1,591.1,493.1z M591.1,458.5c-7.8,0-14.2,6.4-14.2,14.2c0,7.8,6.4,14.2,14.2,14.2s14.2-6.4,14.2-14.2
			C605.3,464.9,598.9,458.5,591.1,458.5z"/>
	</g>
	<g>
		<path fill="#FFFFFF" d="M700,472.7c0,9.5-7.7,17.3-17.3,17.3c-9.5,0-17.3-7.7-17.3-17.3c0-9.5,7.7-17.3,17.3-17.3
			C692.3,455.5,700,463.2,700,472.7z"/>
		<path d="M682.7,493.1c-11.2,0-20.3-9.1-20.3-20.3c0-11.2,9.1-20.3,20.3-20.3c11.2,0,20.3,9.1,20.3,20.3
			C703.1,483.9,693.9,493.1,682.7,493.1z M682.7,458.5c-7.8,0-14.2,6.4-14.2,14.2c0,7.8,6.4,14.2,14.2,14.2
			c7.8,0,14.2-6.4,14.2-14.2C696.9,464.9,690.6,458.5,682.7,458.5z"/>
	</g>
	<g>
		<path fill="#FFFFFF" d="M791.7,472.7c0,9.5-7.7,17.3-17.3,17.3c-9.5,0-17.3-7.7-17.3-17.3c0-9.5,7.7-17.3,17.3-17.3
			C783.9,455.5,791.7,463.2,791.7,472.7z"/>
		<path d="M774.4,493.1c-11.2,0-20.3-9.1-20.3-20.3c0-11.2,9.1-20.3,20.3-20.3c11.2,0,20.3,9.1,20.3,20.3
			C794.7,483.9,785.6,493.1,774.4,493.1z M774.4,458.5c-7.8,0-14.2,6.4-14.2,14.2c0,7.8,6.4,14.2,14.2,14.2
			c7.8,0,14.2-6.4,14.2-14.2C788.6,464.9,782.2,458.5,774.4,458.5z"/>
	</g>
	<g>
		<g>
			<path d="M1240.5,360.2h-125.9c-8.1,0-15.6-3.8-20.3-10.3h-36c-1.7,0-3.1-1.4-3.1-3.1V186.2c0-1.7,1.4-3.1,3.1-3.1h38.6l31.3-37.4
				l0,0c0,0,7.1-10.5,14.6-54.3c0.1-0.6,0.4-1.2,0.8-1.6c0.3-0.3,7.9-8.1,19.4-8.1c3.2,0,6.4,0.6,9.6,1.8c1.6,0.8,34,17.4,12.3,89.7
				l-0.9,2.7h88c14,0,25.3,11.4,25.3,25.3c0,11.8-8,21.7-18.9,24.5c6,4.6,9.8,11.9,9.8,20c0,12-8.4,22.1-19.7,24.7
				c5.8,4.6,9.6,11.8,9.6,19.8c0,12.6-9.3,23.1-21.4,25c5.6,4.6,9.2,11.7,9.2,19.5C1265.8,348.9,1254.4,360.2,1240.5,360.2z
				 M1061.3,343.8h34.5c1,0,2,0.5,2.6,1.4c3.6,5.6,9.6,8.9,16.1,8.9h125.9c10.6,0,19.2-8.6,19.2-19.2c0-10.6-8.6-19.2-19.2-19.2
				c-1.7,0-3.1-1.4-3.1-3.1s1.4-3.1,3.1-3.1h12.3c10.6,0,19.2-8.6,19.2-19.2c0-10.6-8.6-19.2-19.2-19.2c-1.7,0-3.1-1.4-3.1-3.1
				c0-1.7,1.4-3.1,3.1-3.1h10.2c10.6,0,19.2-8.6,19.2-19.2c0-10.6-8.6-19.2-19.2-19.2c-1.7,0-3.1-1.4-3.1-3.1c0-1.7,1.4-3.1,3.1-3.1
				h9.1c10.6,0,19.2-8.6,19.2-19.2c0-10.6-8.6-19.2-19.2-19.2h-92.2c-1,0-1.9-0.5-2.5-1.3c-0.6-0.8-0.7-1.8-0.4-2.8l2.2-6.6
				c20-66.8-8.6-82.1-8.8-82.3c-2.2-0.8-4.7-1.3-7.1-1.3c-7.2,0-12.6,4-14.4,5.6c-7.8,45.3-15.4,55.6-15.7,56.1l-32.3,38.6
				c-0.6,0.7-1.4,1.1-2.4,1.1h-37V343.8z"/>
		</g>
		<g>
			<rect x="966.2" y="167.2" fill="#00A4EE" width="92.1" height="201.4"/>
			<path d="M1058.3,371.7h-92.1c-1.7,0-3.1-1.4-3.1-3.1V167.2c0-1.7,1.4-3.1,3.1-3.1h92.1c1.7,0,3.1,1.4,3.1,3.1v201.4
				C1061.3,370.3,1060,371.7,1058.3,371.7z M969.3,365.6h85.9V170.3h-85.9V365.6z"/>
		</g>
		<g>
			<path fill="#FFFFFF" d="M1030.2,339.2c0,9.9-8,18-18,18c-9.9,0-18-8.1-18-18c0-9.9,8-18,18-18
				C1022.2,321.2,1030.2,329.2,1030.2,339.2z"/>
			<path d="M1012.2,360.2c-11.6,0-21.1-9.4-21.1-21.1c0-11.6,9.4-21.1,21.1-21.1c11.6,0,21,9.4,21,21.1
				C1033.3,350.8,1023.8,360.2,1012.2,360.2z M1012.2,324.3c-8.2,0-14.9,6.7-14.9,14.9s6.7,14.9,14.9,14.9c8.2,0,14.9-6.7,14.9-14.9
				S1020.5,324.3,1012.2,324.3z"/>
		</g>
		<g>
			<path d="M1262.9,226.7h-52.3c-1.7,0-3.1-1.4-3.1-3.1c0-1.7,1.4-3.1,3.1-3.1h52.3c1.7,0,3.1,1.4,3.1,3.1
				C1266,225.3,1264.6,226.7,1262.9,226.7z"/>
		</g>
		<g>
			<path d="M1252.7,271.2H1200c-1.7,0-3.1-1.4-3.1-3.1c0-1.7,1.4-3.1,3.1-3.1h52.7c1.7,0,3.1,1.4,3.1,3.1
				C1255.8,269.8,1254.4,271.2,1252.7,271.2z"/>
		</g>
		<g>
			<path d="M1240.5,315.7H1190c-1.7,0-3.1-1.4-3.1-3.1s1.4-3.1,3.1-3.1h50.5c1.7,0,3.1,1.4,3.1,3.1S1242.2,315.7,1240.5,315.7z"/>
		</g>
	</g>
	<g>
		<g>
			<g>
				<polygon fill="#FFFFFF" points="1193.9,424.7 966.2,424.7 966.2,813.9 1251.7,813.9 1251.7,482.4 				"/>
				<path d="M1251.7,816.9H966.2c-1.7,0-3.1-1.4-3.1-3.1V424.7c0-1.7,1.4-3.1,3.1-3.1h227.7c0.8,0,1.6,0.3,2.2,0.9l57.8,57.8
					c0.6,0.6,0.9,1.4,0.9,2.2v331.4C1254.7,815.6,1253.3,816.9,1251.7,816.9z M969.3,810.8h279.3V483.7l-56-56H969.3V810.8z"/>
			</g>
			<g>
				<polygon fill="#FFFFFF" points="1193.9,482.4 1251.7,482.4 1193.9,424.7 				"/>
				<path d="M1251.7,485.5h-57.8c-1.7,0-3.1-1.4-3.1-3.1v-57.8c0-1.2,0.7-2.4,1.9-2.8c1.2-0.5,2.5-0.2,3.3,0.7l57.8,57.8
					c0.9,0.9,1.1,2.2,0.7,3.3C1254,484.8,1252.9,485.5,1251.7,485.5z M1196.9,479.4h47.3l-47.3-47.3V479.4z"/>
			</g>
		</g>
		<g>
			<rect x="1000.1" y="459.9" fill="#FF7A76" width="65" height="65.1"/>
			<path d="M1065.2,528h-65c-1.7,0-3.1-1.4-3.1-3.1v-65.1c0-1.7,1.4-3.1,3.1-3.1h65c1.7,0,3.1,1.4,3.1,3.1V525
				C1068.2,526.7,1066.9,528,1065.2,528z M1003.2,521.9h58.9V463h-58.9V521.9z"/>
		</g>
		<g>
			<path d="M1171.2,473.6h-89.8c-1.7,0-3.1-1.4-3.1-3.1s1.4-3.1,3.1-3.1h89.8c1.7,0,3.1,1.4,3.1,3.1S1172.9,473.6,1171.2,473.6z"/>
		</g>
		<g>
			<path d="M1214.4,513.9h-132.9c-1.7,0-3.1-1.4-3.1-3.1c0-1.7,1.4-3.1,3.1-3.1h132.9c1.7,0,3.1,1.4,3.1,3.1
				C1217.4,512.5,1216.1,513.9,1214.4,513.9z"/>
		</g>
		<g>
			<path d="M1214.4,558.4h-214.2c-1.7,0-3.1-1.4-3.1-3.1c0-1.7,1.4-3.1,3.1-3.1h214.2c1.7,0,3.1,1.4,3.1,3.1
				C1217.4,557.1,1216.1,558.4,1214.4,558.4z"/>
		</g>
		<g>
			<path d="M1214.4,603.7h-214.2c-1.7,0-3.1-1.4-3.1-3.1c0-1.7,1.4-3.1,3.1-3.1h214.2c1.7,0,3.1,1.4,3.1,3.1
				C1217.4,602.3,1216.1,603.7,1214.4,603.7z"/>
		</g>
		<g>
			<path d="M1214.4,648.9h-214.2c-1.7,0-3.1-1.4-3.1-3.1s1.4-3.1,3.1-3.1h214.2c1.7,0,3.1,1.4,3.1,3.1S1216.1,648.9,1214.4,648.9z"
				/>
		</g>
		<g>
			<path d="M1214.4,694.2h-214.2c-1.7,0-3.1-1.4-3.1-3.1s1.4-3.1,3.1-3.1h214.2c1.7,0,3.1,1.4,3.1,3.1S1216.1,694.2,1214.4,694.2z"
				/>
		</g>
		<g>
			<path d="M1126.3,739.4h-126.2c-1.7,0-3.1-1.4-3.1-3.1c0-1.7,1.4-3.1,3.1-3.1h126.2c1.7,0,3.1,1.4,3.1,3.1
				C1129.4,738.1,1128,739.4,1126.3,739.4z"/>
		</g>
		<g>
			<path d="M1214.4,776.9H1142c-1.7,0-3.1-1.4-3.1-3.1c0-1.7,1.4-3.1,3.1-3.1h72.4c1.7,0,3.1,1.4,3.1,3.1
				C1217.4,775.5,1216.1,776.9,1214.4,776.9z"/>
		</g>
	</g>
	<g>
		<path fill="#00A4EE" d="M1314.1,758.1l-23.4-2.9c-3.7-16.8-12.4-32.4-25.4-44.6l9.4-21.6c-4.2-3.4-8.7-6.5-13.5-9.3
			c-4.8-2.8-9.7-5.2-14.8-7.2l-14.2,18.8c-17-5.4-34.9-5.3-51.3-0.3l-14-19c-10.2,3.9-19.8,9.3-28.5,16.2l9.2,21.7
			c-6.3,5.7-11.8,12.5-16.3,20.2c-4.5,7.7-7.7,15.8-9.6,24.1l-23.4,2.6c-1.7,11-1.8,22-0.2,32.8l23.4,2.9
			c3.7,16.8,12.4,32.4,25.4,44.6l-9.5,21.6c4.2,3.4,8.7,6.5,13.5,9.3c4.8,2.8,9.7,5.2,14.8,7.2l14.3-18.8c17,5.4,34.9,5.3,51.3,0.3
			l14,19c10.2-3.9,19.8-9.3,28.5-16.2l-9.2-21.7c6.3-5.7,11.8-12.5,16.3-20.2c4.5-7.7,7.7-15.8,9.6-24.1l23.4-2.6
			C1315.6,780,1315.6,768.9,1314.1,758.1z M1253.2,801.5c-15.3,26.1-48.8,34.8-74.9,19.5c-26.1-15.3-34.8-48.8-19.5-74.8
			c15.3-26.1,48.8-34.8,74.8-19.6C1259.8,741.9,1268.5,775.4,1253.2,801.5z"/>
		<path d="M1245.2,878.8c-1,0-1.9-0.4-2.5-1.3l-12.7-17.3c-16,4.4-33.1,4.3-48.9-0.3l-13,17.1c-0.8,1.1-2.3,1.5-3.6,1
			c-5.3-2.1-10.4-4.6-15.2-7.4c-4.9-2.9-9.6-6.1-13.9-9.6c-1.1-0.9-1.4-2.3-0.9-3.6l8.6-19.7c-11.9-11.7-20.2-26.3-24.2-42.6
			l-21.3-2.7c-1.4-0.2-2.5-1.2-2.7-2.6c-1.6-11.2-1.6-22.5,0.2-33.7c0.2-1.4,1.3-2.4,2.7-2.6l21.3-2.4c2.1-8,5.2-15.6,9.5-22.8
			c4.2-7.2,9.4-13.7,15.3-19.4l-8.3-19.7c-0.5-1.3-0.2-2.7,0.9-3.6c8.9-7,18.8-12.6,29.3-16.6c1.3-0.5,2.7-0.1,3.6,1l12.7,17.3
			c16-4.4,33.1-4.3,49,0.3l13-17.1c0.8-1.1,2.3-1.5,3.6-1c5.2,2.1,10.3,4.6,15.2,7.4c4.8,2.8,9.5,6.1,13.9,9.6
			c1.1,0.9,1.4,2.3,0.9,3.6l-8.6,19.7c11.9,11.7,20.2,26.3,24.2,42.6l21.3,2.7c1.4,0.2,2.5,1.2,2.7,2.6c1.6,11.2,1.6,22.6-0.2,33.7
			c-0.2,1.4-1.3,2.4-2.7,2.6l-21.3,2.4c-2.1,8-5.3,15.7-9.5,22.8c-4.2,7.2-9.4,13.7-15.3,19.4l8.3,19.7c0.5,1.3,0.2,2.7-0.9,3.6
			c-8.9,7-18.7,12.6-29.3,16.7C1245.9,878.8,1245.5,878.8,1245.2,878.8z M1231.2,853.7c1,0,1.9,0.4,2.5,1.2l12.6,17.1
			c8.5-3.5,16.4-8,23.7-13.5l-8.2-19.5c-0.5-1.2-0.2-2.6,0.8-3.5c6.2-5.6,11.5-12.2,15.8-19.5c4.3-7.3,7.4-15.1,9.3-23.2
			c0.3-1.3,1.4-2.2,2.6-2.4l21.1-2.4c1.2-9,1.3-18.2,0.2-27.3l-21.1-2.6c-1.3-0.2-2.3-1.1-2.6-2.4c-3.7-16.6-12.1-31.5-24.5-43
			c-0.9-0.9-1.2-2.3-0.7-3.5l8.5-19.5c-3.6-2.8-7.4-5.4-11.3-7.6c-3.9-2.3-8-4.3-12.2-6.1l-12.8,16.9c-0.8,1-2.1,1.5-3.4,1.1
			c-16-5.1-33.4-5.2-49.5-0.3c-1.3,0.4-2.6-0.1-3.4-1.1l-12.6-17.1c-8.4,3.4-16.4,8-23.7,13.5l8.2,19.5c0.5,1.2,0.2,2.6-0.8,3.5
			c-6.2,5.6-11.5,12.2-15.7,19.5c-4.3,7.3-7.4,15.1-9.3,23.3c-0.3,1.3-1.4,2.2-2.6,2.4l-21.1,2.4c-1.2,9-1.3,18.2-0.2,27.3l21,2.6
			c1.3,0.2,2.3,1.1,2.6,2.4c3.7,16.6,12.1,31.5,24.5,43c0.9,0.9,1.2,2.3,0.7,3.5l-8.5,19.5c3.6,2.8,7.4,5.3,11.3,7.6
			c3.9,2.3,8,4.3,12.2,6.1l12.8-16.9c0.8-1,2.1-1.5,3.4-1.1c16,5.1,33.4,5.2,49.5,0.3C1230.6,853.8,1230.9,853.7,1231.2,853.7z
			 M1206,831.6c-10.2,0-20.3-2.7-29.2-7.9c-13.3-7.8-22.8-20.3-26.7-35.2c-3.9-14.9-1.8-30.5,6.1-43.8
			c10.3-17.6,29.4-28.6,49.9-28.6c10.2,0,20.3,2.7,29.1,7.9c13.3,7.8,22.8,20.3,26.7,35.3s1.8,30.5-6,43.8
			C1245.6,820.7,1226.4,831.6,1206,831.6z M1206.1,722.2c-18.3,0-35.4,9.8-44.6,25.5c-7,11.9-8.9,25.8-5.4,39.1s12,24.5,23.9,31.5
			c7.9,4.6,16.9,7.1,26,7.1c18.3,0,35.4-9.8,44.6-25.5c7-11.9,8.9-25.8,5.4-39.1c-3.5-13.3-12-24.5-23.9-31.5
			C1224.2,724.7,1215.2,722.2,1206.1,722.2z"/>
	</g>
	<g>
		<path d="M1284.1,485.5h-32.4c-1.7,0-3.1-1.4-3.1-3.1s1.4-3.1,3.1-3.1h32.4c1.7,0,3.1,1.4,3.1,3.1S1285.8,485.5,1284.1,485.5z"/>
	</g>
	<g>
		<path d="M1193.9,427.7c-1.7,0-3.1-1.4-3.1-3.1V405c0-1.7,1.4-3.1,3.1-3.1c1.7,0,3.1,1.4,3.1,3.1v19.7
			C1196.9,426.3,1195.6,427.7,1193.9,427.7z"/>
	</g>
	<g>
		<path d="M966.2,390.8c-1.7,0-3.1-1.4-3.1-3.1V146.8c0-1.7,1.4-3.1,3.1-3.1c1.7,0,3.1,1.4,3.1,3.1v240.9
			C969.3,389.4,967.9,390.8,966.2,390.8z"/>
	</g>
	<g>
		<path d="M1058.3,170.3c-1.7,0-3.1-1.4-3.1-3.1v-31.5c0-1.7,1.4-3.1,3.1-3.1c1.7,0,3.1,1.4,3.1,3.1v31.5
			C1061.3,168.9,1060,170.3,1058.3,170.3z"/>
	</g>
	<g>
		<path d="M966.2,846.1c-1.7,0-3.1-1.4-3.1-3.1v-29.2c0-1.7,1.4-3.1,3.1-3.1c1.7,0,3.1,1.4,3.1,3.1V843
			C969.3,844.7,967.9,846.1,966.2,846.1z"/>
	</g>
	<g>
		<path d="M377.9,169.7H127.6c-15.8,0-28.7-12.9-28.7-28.7c0-15.8,12.9-28.7,28.7-28.7h250.3c1.7,0,3.1,1.4,3.1,3.1
			c0,1.7-1.4,3.1-3.1,3.1H127.6c-12.4,0-22.5,10.1-22.5,22.5c0,12.4,10.1,22.5,22.5,22.5h250.3c1.7,0,3.1,1.4,3.1,3.1
			C380.9,168.3,379.6,169.7,377.9,169.7z"/>
	</g>
	<g>
		<path d="M377.9,437H127.6c-15.8,0-28.7-12.9-28.7-28.7V141c0-1.7,1.4-3.1,3.1-3.1s3.1,1.4,3.1,3.1c0,12.4,10.1,22.5,22.5,22.5
			h250.3c1.7,0,3.1,1.4,3.1,3.1v267.3C380.9,435.6,379.6,437,377.9,437z M105.1,158.7v249.6c0,12.4,10.1,22.5,22.5,22.5h247.2V169.7
			H127.6C118.5,169.7,110.3,165.4,105.1,158.7z"/>
	</g>
	<g>
		<path d="M377.9,144.1H125.7c-1.7,0-3.1-1.4-3.1-3.1s1.4-3.1,3.1-3.1h252.1c1.7,0,3.1,1.4,3.1,3.1S379.6,144.1,377.9,144.1z"/>
	</g>
	<g>
		<path d="M127.6,463c-1.7,0-3.1-1.4-3.1-3.1V273.5c0-1.7,1.4-3.1,3.1-3.1c1.7,0,3.1,1.4,3.1,3.1v186.4
			C130.7,461.6,129.3,463,127.6,463z"/>
	</g>
	<g>
		<path d="M127.6,249.2c-1.7,0-3.1-1.4-3.1-3.1V207c0-1.7,1.4-3.1,3.1-3.1c1.7,0,3.1,1.4,3.1,3.1v39.1
			C130.7,247.8,129.3,249.2,127.6,249.2z"/>
	</g>
	<g>
		<path fill="#FF7A76" d="M330.6,299.8c0,43.5-35.3,78.8-78.8,78.8c-43.5,0-78.8-35.3-78.8-78.8c0-43.5,35.3-78.8,78.8-78.8
			C295.3,221,330.6,256.3,330.6,299.8z"/>
		<path d="M251.8,381.7c-45.2,0-81.9-36.7-81.9-81.9c0-45.2,36.7-81.9,81.9-81.9c45.2,0,81.9,36.7,81.9,81.9
			C333.7,345,297,381.7,251.8,381.7z M251.8,224.1c-41.8,0-75.8,34-75.8,75.8s34,75.8,75.8,75.8s75.8-34,75.8-75.8
			S293.6,224.1,251.8,224.1z"/>
	</g>
	<g>
		<path d="M397.3,821.2H102c-1.7,0-3.1-1.4-3.1-3.1V499.3c0-1.7,1.4-3.1,3.1-3.1h295.3c1.7,0,3.1,1.4,3.1,3.1v318.8
			C400.4,819.8,399,821.2,397.3,821.2z M105.1,815h289.2V502.4H105.1V815z"/>
	</g>
	<g>
		<path d="M102,502.4H86.6c-1.7,0-3.1-1.4-3.1-3.1s1.4-3.1,3.1-3.1H102c1.7,0,3.1,1.4,3.1,3.1S103.7,502.4,102,502.4z"/>
	</g>
	<g>
		<path d="M234.4,502.4c-1.7,0-3.1-1.4-3.1-3.1v-18.4c0-1.7,1.4-3.1,3.1-3.1s3.1,1.4,3.1,3.1v18.4
			C237.4,501,236.1,502.4,234.4,502.4z"/>
	</g>
	<g>
		<g>
			<path fill="#FF7A76" d="M358,795.6c0,28.5-23.1,51.6-51.6,51.6s-51.6-23.1-51.6-51.6c0-28.5,23.1-51.6,51.6-51.6
				S358,767.1,358,795.6z"/>
			<path d="M306.5,850.2c-30.1,0-54.6-24.5-54.6-54.6c0-30.1,24.5-54.6,54.6-54.6c30.1,0,54.6,24.5,54.6,54.6
				C361.1,825.7,336.6,850.2,306.5,850.2z M306.5,747.1c-26.7,0-48.5,21.8-48.5,48.5c0,26.7,21.8,48.5,48.5,48.5
				c26.7,0,48.5-21.8,48.5-48.5C355,768.9,333.2,747.1,306.5,747.1z"/>
		</g>
		<g>
			<polyline fill="#FF7A76" points="273.8,795 298.9,820.1 339.1,779.8 			"/>
			<path d="M298.9,823.2c-0.8,0-1.6-0.3-2.2-0.9l-25.1-25.1c-1.2-1.2-1.2-3.1,0-4.3c1.2-1.2,3.1-1.2,4.3,0l22.9,22.9l38.1-38.1
				c1.2-1.2,3.1-1.2,4.3,0c1.2,1.2,1.2,3.1,0,4.3l-40.3,40.2C300.5,822.9,299.7,823.2,298.9,823.2z"/>
		</g>
	</g>
	<g>
		<g>
			<rect x="287.2" y="614.9" fill="#FFFFFF" width="38.6" height="62.4"/>
			<path d="M325.8,680.3h-38.6c-1.7,0-3.1-1.4-3.1-3.1v-62.4c0-1.7,1.4-3.1,3.1-3.1h38.6c1.7,0,3.1,1.4,3.1,3.1v62.4
				C328.9,679,327.5,680.3,325.8,680.3z M290.2,674.2h32.5V618h-32.5V674.2z"/>
		</g>
		<g>
			<path fill="#FFFFFF" d="M373,713.4c0-0.1,0-0.3,0-0.4c0-19.7-16-35.7-35.7-35.7h-61.7c-19.7,0-35.7,16-35.7,35.7
				c0,0.2,0,0.3,0,0.4H373z"/>
			<path d="M373,716.5H240c-1.7,0-3.1-1.4-3.1-3.1c0-21.8,17.4-39.2,38.7-39.2h61.7c21.4,0,38.8,17.4,38.8,38.8
				C376.1,714.7,374.7,716.5,373,716.5z M243.1,710.3h126.7c-1.4-16.8-15.4-30-32.5-30h-61.7C258.5,680.3,244.5,693.6,243.1,710.3z"
				/>
		</g>
		<g>
			<rect x="247.4" y="713.4" fill="#FFFFFF" width="118.1" height="15"/>
			<path d="M365.5,731.4H247.4c-1.7,0-3.1-1.4-3.1-3.1v-15c0-1.7,1.4-3.1,3.1-3.1h118.1c1.7,0,3.1,1.4,3.1,3.1v15
				C368.6,730.1,367.2,731.4,365.5,731.4z M250.5,725.3h111.9v-8.8H250.5V725.3z"/>
		</g>
		<g>
			<rect x="279.5" y="600.5" fill="#FFFFFF" width="53.9" height="14.4"/>
			<path d="M333.4,618h-53.9c-1.7,0-3.1-1.4-3.1-3.1v-14.4c0-1.7,1.4-3.1,3.1-3.1h53.9c1.7,0,3.1,1.4,3.1,3.1v14.4
				C336.5,616.6,335.1,618,333.4,618z M282.6,611.8h47.8v-8.3h-47.8V611.8z"/>
		</g>
	</g>
	<g>
		<path d="M362.5,535.7H254.9c-1.7,0-3.1-1.4-3.1-3.1c0-1.7,1.4-3.1,3.1-3.1h107.6c1.7,0,3.1,1.4,3.1,3.1
			C365.6,534.3,364.2,535.7,362.5,535.7z"/>
	</g>
	<g>
		<path d="M362.5,573H254.9c-1.7,0-3.1-1.4-3.1-3.1s1.4-3.1,3.1-3.1h107.6c1.7,0,3.1,1.4,3.1,3.1S364.2,573,362.5,573z"/>
	</g>
	<g>
		<path d="M234.4,665H127.6c-1.7,0-3.1-1.4-3.1-3.1c0-1.7,1.4-3.1,3.1-3.1h106.8c1.7,0,3.1,1.4,3.1,3.1
			C237.4,663.7,236.1,665,234.4,665z"/>
	</g>
	<g>
		<path d="M215.5,702.4h-87.9c-1.7,0-3.1-1.4-3.1-3.1s1.4-3.1,3.1-3.1h87.9c1.7,0,3.1,1.4,3.1,3.1S217.2,702.4,215.5,702.4z"/>
	</g>
	<g>
		<path d="M226,742.8h-98.4c-1.7,0-3.1-1.4-3.1-3.1s1.4-3.1,3.1-3.1H226c1.7,0,3.1,1.4,3.1,3.1S227.7,742.8,226,742.8z"/>
	</g>
	<g>
		<path d="M226,782.9h-98.4c-1.7,0-3.1-1.4-3.1-3.1s1.4-3.1,3.1-3.1H226c1.7,0,3.1,1.4,3.1,3.1S227.7,782.9,226,782.9z"/>
	</g>
	<g>
		<path fill="#FF7A76" d="M297.7,293.1l-9.9-1.2c-1.6-7.1-5.3-13.8-10.8-19l4-9.2c-1.8-1.4-3.7-2.8-5.7-4c-2-1.2-4.1-2.2-6.3-3.1
			l-6.1,8c-7.2-2.3-14.8-2.2-21.8-0.1l-5.9-8.1c-4.3,1.7-8.4,4-12.1,6.9l3.9,9.2c-2.7,2.4-5,5.3-6.9,8.6c-1.9,3.3-3.3,6.7-4.1,10.2
			l-9.9,1.1c-0.7,4.7-0.7,9.3-0.1,13.9l9.9,1.2c1.6,7.1,5.3,13.8,10.8,19l-4,9.2c1.8,1.5,3.7,2.8,5.7,4c2,1.2,4.1,2.2,6.3,3.1l6.1-8
			c7.2,2.3,14.8,2.3,21.8,0.1l5.9,8.1c4.3-1.7,8.4-4,12.1-6.9l-3.9-9.2c2.7-2.4,5-5.3,6.9-8.6c1.9-3.3,3.3-6.7,4.1-10.2l10-1.1
			C298.4,302.4,298.4,297.7,297.7,293.1z"/>
		<path d="M268.4,346.2c-1,0-1.9-0.4-2.5-1.2l-4.7-6.4c-6.4,1.5-13.1,1.5-19.4-0.1l-4.8,6.3c-0.8,1.1-2.3,1.5-3.6,1
			c-2.3-0.9-4.6-2-6.7-3.3c-2.1-1.2-4.2-2.7-6.1-4.2c-1.1-0.9-1.4-2.3-0.9-3.6l3.2-7.3c-4.5-4.7-7.8-10.5-9.6-16.9l-7.9-1
			c-1.4-0.2-2.5-1.2-2.7-2.6c-0.7-5-0.7-10,0.1-14.9c0.2-1.4,1.3-2.4,2.7-2.6l7.9-0.9c0.9-3.1,2.2-6.1,3.9-9
			c1.7-2.8,3.7-5.4,5.9-7.8l-3.1-7.3c-0.5-1.3-0.2-2.7,0.9-3.6c3.9-3.1,8.3-5.6,12.9-7.3c1.3-0.5,2.7-0.1,3.6,1l4.7,6.4
			c6.4-1.6,13.1-1.5,19.4,0.1l4.8-6.3c0.8-1.1,2.3-1.5,3.6-1c2.3,0.9,4.6,2,6.7,3.3c2.1,1.2,4.2,2.6,6.1,4.2
			c1.1,0.9,1.4,2.3,0.9,3.6l-3.2,7.3c4.6,4.8,7.8,10.5,9.6,16.9l7.9,1c1.4,0.2,2.5,1.2,2.7,2.6c0.7,4.9,0.7,9.9-0.1,14.9
			c-0.2,1.4-1.3,2.4-2.7,2.6l-7.9,0.9c-0.9,3.1-2.2,6.1-3.9,9c-1.7,2.8-3.7,5.4-5.9,7.8l3.1,7.3c0.5,1.3,0.2,2.7-0.9,3.6
			c-3.9,3.1-8.3,5.5-12.9,7.3C269.2,346.1,268.8,346.2,268.4,346.2z M262.5,332c1,0,1.9,0.4,2.5,1.2l4.5,6.1c2.6-1.1,5-2.5,7.3-4.2
			l-3-7c-0.5-1.2-0.2-2.6,0.8-3.5c2.5-2.3,4.6-4.9,6.4-7.9c1.7-2.9,3-6.1,3.8-9.4c0.3-1.3,1.4-2.2,2.6-2.4l7.6-0.8
			c0.3-2.8,0.3-5.6,0-8.4l-7.6-0.9c-1.3-0.2-2.3-1.1-2.6-2.4c-1.5-6.7-4.9-12.7-9.9-17.4c-0.9-0.9-1.2-2.3-0.7-3.5l3.1-7
			c-1.2-0.8-2.3-1.6-3.5-2.3c-1.2-0.7-2.5-1.4-3.7-2l-4.6,6.1c-0.8,1-2.1,1.5-3.4,1.1c-6.4-2-13.5-2.1-20-0.1
			c-1.2,0.4-2.6-0.1-3.4-1.1l-4.5-6.1c-2.6,1.1-5,2.5-7.3,4.1l3,7c0.5,1.2,0.2,2.6-0.8,3.5c-2.5,2.3-4.6,4.9-6.4,7.9
			c-1.7,3-3,6.1-3.8,9.4c-0.3,1.3-1.4,2.2-2.6,2.4l-7.6,0.8c-0.3,2.8-0.3,5.6,0,8.4l7.6,0.9c1.3,0.2,2.3,1.1,2.6,2.4
			c1.5,6.7,4.9,12.7,9.9,17.4c0.9,0.9,1.2,2.3,0.7,3.5l-3.1,7c1.1,0.8,2.3,1.6,3.5,2.3c1.2,0.7,2.5,1.4,3.7,2l4.6-6.1
			c0.8-1,2.1-1.5,3.4-1.1c6.4,2.1,13.5,2.1,20,0.1C261.9,332,262.2,332,262.5,332z"/>
	</g>
	<g>
		<path fill="#FF7A76" d="M270.7,299.8c0,10.4-8.4,18.9-18.9,18.9"/>
		<path d="M251.8,321.8c-1.7,0-3.1-1.4-3.1-3.1c0-1.7,1.4-3.1,3.1-3.1c8.7,0,15.8-7.1,15.8-15.8c0-1.7,1.4-3.1,3.1-3.1
			c1.7,0,3.1,1.4,3.1,3.1C273.7,311.9,263.9,321.8,251.8,321.8z"/>
	</g>
</g>
</svg>
